<?xml version="1.0" encoding="UTF-8" standalone="no"?> <svg width="64" height="64" viewBox="0 0 64 64" fill="none" xmlns="http://www.w3.org/2000/svg">
<path d="M32 15.3799C28.7129 15.3799 25.4996 16.3546 22.7664 18.1809C20.0333 20.0071 17.9031 22.6028 16.6451 25.6397C15.3872 28.6766 15.0581 32.0183 15.6994 35.2423C16.3406 38.4662 17.9235 41.4276 20.2479 43.752C22.5722 46.0763 25.5336 47.6592 28.7576 48.3005C31.9816 48.9418 35.3233 48.6127 38.3602 47.3548C41.3971 46.0968 43.9928 43.9666 45.819 41.2335C47.6453 38.5003 48.62 35.287 48.62 31.9999C48.6147 27.5936 46.862 23.3693 43.7463 20.2536C40.6306 17.1379 36.4063 15.3852 32 15.3799V15.3799Z" fill="url(#paint0_linear)"/>
<path d="M47 19C47.5296 18.9977 48.0367 18.7855 48.41 18.41L53.21 13.61C53.5853 13.2347 53.7961 12.7257 53.7961 12.195C53.7961 11.6642 53.5853 11.1552 53.21 10.78C52.8348 10.4047 52.3258 10.1938 51.795 10.1938C51.2643 10.1938 50.7553 10.4047 50.38 10.78L45.58 15.58C45.298 15.8597 45.1056 16.2171 45.0275 16.6066C44.9493 16.9961 44.989 17.4 45.1413 17.7669C45.2936 18.1338 45.5518 18.447 45.8828 18.6666C46.2138 18.8862 46.6028 19.0023 47 19Z" fill="url(#paint1_linear)"/>
<path d="M60 30H53.22C52.6895 30 52.1808 30.2107 51.8058 30.5858C51.4307 30.9609 51.22 31.4696 51.22 32C51.22 32.5304 51.4307 33.0391 51.8058 33.4142C52.1808 33.7893 52.6895 34 53.22 34H60C60.5304 34 61.0391 33.7893 61.4142 33.4142C61.7893 33.0391 62 32.5304 62 32C62 31.4696 61.7893 30.9609 61.4142 30.5858C61.0391 30.2107 60.5304 30 60 30Z" fill="url(#paint2_linear)"/>
<path d="M48.42 45.59C48.2342 45.4042 48.0136 45.2568 47.7708 45.1562C47.528 45.0557 47.2678 45.0039 47.005 45.0039C46.7422 45.0039 46.482 45.0557 46.2392 45.1562C45.9964 45.2568 45.7758 45.4042 45.59 45.59C45.4042 45.7758 45.2568 45.9964 45.1562 46.2392C45.0557 46.482 45.0039 46.7422 45.0039 47.005C45.0039 47.2678 45.0557 47.528 45.1562 47.7708C45.2568 48.0136 45.4042 48.2342 45.59 48.42L50.39 53.22C50.7653 53.5953 51.2743 53.8061 51.805 53.8061C52.3357 53.8061 52.8447 53.5953 53.22 53.22C53.5953 52.8447 53.8061 52.3357 53.8061 51.805C53.8061 51.2743 53.5953 50.7653 53.22 50.39L48.42 45.59Z" fill="url(#paint3_linear)"/>
<path opacity="0.4" d="M19 32.0001C19.0071 27.9088 20.5213 23.9635 23.2533 20.9179C25.9853 17.8724 29.7435 15.9401 33.81 15.4901C31.4761 15.2081 29.109 15.4245 26.8649 16.1248C24.6208 16.8252 22.5508 17.9937 20.7916 19.5531C19.0325 21.1125 17.6241 23.0274 16.6596 25.1713C15.6951 27.3152 15.1964 29.6393 15.1964 31.9901C15.1964 34.341 15.6951 36.6651 16.6596 38.8089C17.6241 40.9528 19.0325 42.8677 20.7916 44.4271C22.5508 45.9865 24.6208 47.155 26.8649 47.8554C29.109 48.5558 31.4761 48.7721 33.81 48.4901C29.7469 48.0406 25.9914 46.1111 23.2599 43.0698C20.5285 40.0284 19.0121 36.088 19 32.0001V32.0001Z" fill="black"/>
<path d="M32 51.22C31.4696 51.22 30.9609 51.4307 30.5858 51.8058C30.2107 52.1808 30 52.6895 30 53.22V60C30 60.5304 30.2107 61.0391 30.5858 61.4142C30.9609 61.7893 31.4696 62 32 62C32.5304 62 33.0391 61.7893 33.4142 61.4142C33.7893 61.0391 34 60.5304 34 60V53.22C34 52.6895 33.7893 52.1808 33.4142 51.8058C33.0391 51.4307 32.5304 51.22 32 51.22Z" fill="url(#paint4_linear)"/>
<path d="M32 2C31.4696 2 30.9609 2.21071 30.5858 2.58579C30.2107 2.96086 30 3.46957 30 4V10.78C30 11.3104 30.2107 11.8191 30.5858 12.1942C30.9609 12.5693 31.4696 12.78 32 12.78C32.5304 12.78 33.0391 12.5693 33.4142 12.1942C33.7893 11.8191 34 11.3104 34 10.78V4C34 3.46957 33.7893 2.96086 33.4142 2.58579C33.0391 2.21071 32.5304 2 32 2Z" fill="url(#paint5_linear)"/>
<path d="M15.58 45.59L10.78 50.39C10.4047 50.7653 10.1938 51.2743 10.1938 51.805C10.1938 52.3357 10.4047 52.8447 10.78 53.22C11.1552 53.5953 11.6642 53.8061 12.195 53.8061C12.7257 53.8061 13.2347 53.5953 13.61 53.22L18.41 48.42C18.7852 48.0447 18.9961 47.5357 18.9961 47.005C18.9961 46.4743 18.7852 45.9653 18.41 45.59C18.0347 45.2147 17.5257 45.0039 16.995 45.0039C16.4642 45.0039 15.9552 45.2147 15.58 45.59V45.59Z" fill="url(#paint6_linear)"/>
<path d="M12.78 32C12.78 31.4696 12.5693 30.9609 12.1942 30.5858C11.8191 30.2107 11.3104 30 10.78 30H4C3.46957 30 2.96086 30.2107 2.58579 30.5858C2.21071 30.9609 2 31.4696 2 32C2 32.5304 2.21071 33.0391 2.58579 33.4142C2.96086 33.7893 3.46957 34 4 34H10.78C11.3104 34 11.8191 33.7893 12.1942 33.4142C12.5693 33.0391 12.78 32.5304 12.78 32V32Z" fill="url(#paint7_linear)"/>
<path d="M13.62 10.79C13.2447 10.4147 12.7357 10.2039 12.205 10.2039C11.6742 10.2039 11.1653 10.4147 10.79 10.79C10.4147 11.1653 10.2039 11.6742 10.2039 12.205C10.2039 12.7357 10.4147 13.2447 10.79 13.62L15.59 18.42C15.9653 18.7953 16.4742 19.0061 17.005 19.0061C17.5357 19.0061 18.0447 18.7953 18.42 18.42C18.7953 18.0447 19.0061 17.5357 19.0061 17.005C19.0061 16.4742 18.7953 15.9653 18.42 15.59L13.62 10.79Z" fill="url(#paint8_linear)"/>
<path d="M24.13 33.9999C23.5996 33.9999 23.0909 33.7892 22.7158 33.4141C22.3407 33.039 22.13 32.5303 22.13 31.9999C22.1353 29.3838 23.1769 26.8764 25.0267 25.0266C26.8765 23.1767 29.3839 22.1352 32 22.1299C32.5304 22.1299 33.0391 22.3406 33.4142 22.7157C33.7893 23.0907 34 23.5994 34 24.1299C34 24.6603 33.7893 25.169 33.4142 25.5441C33.0391 25.9192 32.5304 26.1299 32 26.1299C30.444 26.1325 28.9525 26.7518 27.8522 27.8521C26.7519 28.9524 26.1326 30.4439 26.13 31.9999C26.13 32.5303 25.9193 33.039 25.5442 33.4141C25.1691 33.7892 24.6604 33.9999 24.13 33.9999Z" fill="url(#paint9_linear)"/>
<defs>
<linearGradient id="paint0_linear" x1="15.38" y1="31.9999" x2="48.62" y2="31.9999" gradientUnits="userSpaceOnUse">
<stop stop-color="#FFEB1C"/>
<stop offset="0.32" stop-color="#FED319"/>
<stop offset="0.99" stop-color="#FC9612"/>
<stop offset="1" stop-color="#FC9512"/>
</linearGradient>
<linearGradient id="paint1_linear" x1="441.337" y1="138.764" x2="518.845" y2="138.764" gradientUnits="userSpaceOnUse">
<stop stop-color="#FFEB1C"/>
<stop offset="0.32" stop-color="#FED319"/>
<stop offset="0.99" stop-color="#FC9612"/>
<stop offset="1" stop-color="#FC9512"/>
</linearGradient>
<linearGradient id="paint2_linear" x1="603.372" y1="30" x2="719.58" y2="30" gradientUnits="userSpaceOnUse">
<stop stop-color="#FFEB1C"/>
<stop offset="0.32" stop-color="#FED319"/>
<stop offset="0.99" stop-color="#FC9612"/>
<stop offset="1" stop-color="#FC9512"/>
</linearGradient>
<linearGradient id="paint3_linear" x1="441.104" y1="479.834" x2="518.564" y2="479.834" gradientUnits="userSpaceOnUse">
<stop stop-color="#FFEB1C"/>
<stop offset="0.32" stop-color="#FED319"/>
<stop offset="0.99" stop-color="#FC9612"/>
<stop offset="1" stop-color="#FC9512"/>
</linearGradient>
<linearGradient id="paint4_linear" x1="150" y1="661.476" x2="166" y2="661.476" gradientUnits="userSpaceOnUse">
<stop stop-color="#FFEB1C"/>
<stop offset="0.32" stop-color="#FED319"/>
<stop offset="0.99" stop-color="#FC9612"/>
<stop offset="1" stop-color="#FC9512"/>
</linearGradient>
<linearGradient id="paint5_linear" x1="150" y1="81.6642" x2="166" y2="81.6642" gradientUnits="userSpaceOnUse">
<stop stop-color="#FFEB1C"/>
<stop offset="0.32" stop-color="#FED319"/>
<stop offset="0.99" stop-color="#FC9612"/>
<stop offset="1" stop-color="#FC9512"/>
</linearGradient>
<linearGradient id="paint6_linear" x1="99.9765" y1="479.834" x2="177.436" y2="479.834" gradientUnits="userSpaceOnUse">
<stop stop-color="#FFEB1C"/>
<stop offset="0.32" stop-color="#FED319"/>
<stop offset="0.99" stop-color="#FC9612"/>
<stop offset="1" stop-color="#FC9512"/>
</linearGradient>
<linearGradient id="paint7_linear" x1="23.56" y1="30" x2="139.768" y2="30" gradientUnits="userSpaceOnUse">
<stop stop-color="#FFEB1C"/>
<stop offset="0.32" stop-color="#FED319"/>
<stop offset="0.99" stop-color="#FC9612"/>
<stop offset="1" stop-color="#FC9512"/>
</linearGradient>
<linearGradient id="paint8_linear" x1="99.9865" y1="138.716" x2="177.446" y2="138.716" gradientUnits="userSpaceOnUse">
<stop stop-color="#FFEB1C"/>
<stop offset="0.32" stop-color="#FED319"/>
<stop offset="0.99" stop-color="#FC9612"/>
<stop offset="1" stop-color="#FC9512"/>
</linearGradient>
<linearGradient id="paint9_linear" x1="22.13" y1="28.0599" x2="34" y2="28.0599" gradientUnits="userSpaceOnUse">
<stop stop-color="#FDFBF7"/>
<stop offset="0.35" stop-color="#F5F0DF"/>
<stop offset="1" stop-color="#E3D7A9"/>
</linearGradient>
</defs>
</svg>
