<?xml version="1.0" encoding="UTF-8" standalone="no"?><!DOCTYPE svg PUBLIC "-//W3C//DTD SVG 1.1//EN" "http://www.w3.org/Graphics/SVG/1.1/DTD/svg11.dtd"><svg width="100%" height="100%" viewBox="0 0 48 48" version="1.1" xmlns="http://www.w3.org/2000/svg" xmlns:xlink="http://www.w3.org/1999/xlink" xml:space="preserve" xmlns:serif="http://www.serif.com/" style="fill-rule:evenodd;clip-rule:evenodd;stroke-linejoin:round;stroke-miterlimit:2;"><g id="Icon"><path d="M23,9.277l-0,2.309l-3.293,-3.293c-0.39,-0.39 -1.024,-0.39 -1.414,-0c-0.39,0.39 -0.39,1.024 -0,1.414l4.707,4.707l-0,7.854l-6.802,-3.927l-1.722,-6.43c-0.143,-0.533 -0.692,-0.85 -1.225,-0.707c-0.533,0.143 -0.85,0.692 -0.707,1.225l1.205,4.498l-2,-1.155l-2.695,-4.855c-0.268,-0.483 -0.877,-0.657 -1.36,-0.389c-0.482,0.267 -0.657,0.877 -0.389,1.359l2.021,3.641c0,0 -4.163,0.07 -4.163,0.07c-0.552,0.01 -0.993,0.465 -0.983,1.017c0.009,0.552 0.464,0.992 1.016,0.983l5.553,-0.093l2,1.154l-4.498,1.205c-0.533,0.143 -0.85,0.692 -0.707,1.225c0.143,0.533 0.691,0.85 1.224,0.707l6.43,-1.723l6.802,3.927l-6.802,3.927l-6.43,-1.723c-0.533,-0.143 -1.081,0.174 -1.224,0.707c-0.143,0.533 0.174,1.082 0.707,1.225l4.498,1.205l-2,1.154l-5.553,-0.093c-0.552,-0.009 -1.007,0.431 -1.016,0.983c-0.01,0.552 0.431,1.007 0.983,1.017l4.163,0.07c0,-0 -2.021,3.641 -2.021,3.641c-0.268,0.482 -0.093,1.092 0.389,1.359c0.483,0.268 1.092,0.094 1.36,-0.389l2.695,-4.855l2,-1.155l-1.205,4.498c-0.143,0.533 0.174,1.082 0.707,1.225c0.533,0.143 1.082,-0.174 1.225,-0.707l1.722,-6.43l6.802,-3.927l-0,7.854l-4.707,4.707c-0.39,0.39 -0.39,1.024 -0,1.414c0.39,0.39 1.024,0.39 1.414,0l3.293,-3.293l-0,2.309l-2.857,4.763c-0.284,0.473 -0.131,1.088 0.343,1.371c0.473,0.284 1.088,0.131 1.371,-0.343l2.143,-3.57c-0,-0 2.143,3.57 2.143,3.57c0.283,0.474 0.898,0.627 1.371,0.343c0.474,-0.283 0.627,-0.898 0.343,-1.371l-2.857,-4.763l-0,-2.309l3.293,3.293c0.39,0.39 1.024,0.39 1.414,0c0.39,-0.39 0.39,-1.024 0,-1.414l-4.707,-4.707l-0,-7.854l6.802,3.927l1.722,6.43c0.143,0.533 0.692,0.85 1.225,0.707c0.533,-0.143 0.85,-0.692 0.707,-1.225l-1.205,-4.498l2,1.155l2.695,4.855c0.268,0.483 0.877,0.657 1.36,0.389c0.482,-0.267 0.657,-0.877 0.389,-1.359l-2.021,-3.641c-0,-0 4.163,-0.07 4.163,-0.07c0.552,-0.01 0.993,-0.465 0.983,-1.017c-0.009,-0.552 -0.464,-0.992 -1.016,-0.983l-5.553,0.093l-2,-1.154l4.498,-1.205c0.533,-0.143 0.85,-0.692 0.707,-1.225c-0.143,-0.533 -0.691,-0.85 -1.224,-0.707l-6.43,1.723l-6.802,-3.927l6.802,-3.927l6.43,1.723c0.533,0.143 1.081,-0.174 1.224,-0.707c0.143,-0.533 -0.174,-1.082 -0.707,-1.225l-4.498,-1.205l2,-1.154l5.553,0.093c0.552,0.009 1.007,-0.431 1.016,-0.983c0.01,-0.552 -0.431,-1.007 -0.983,-1.017l-4.163,-0.07c-0,0 2.021,-3.641 2.021,-3.641c0.268,-0.482 0.093,-1.092 -0.389,-1.359c-0.483,-0.268 -1.092,-0.094 -1.36,0.389l-2.695,4.855l-2,1.155l1.205,-4.498c0.143,-0.533 -0.174,-1.082 -0.707,-1.225c-0.533,-0.143 -1.082,0.174 -1.225,0.707l-1.722,6.43l-6.802,3.927l-0,-7.854l4.707,-4.707c0.39,-0.39 0.39,-1.024 0,-1.414c-0.39,-0.39 -1.024,-0.39 -1.414,-0l-3.293,3.293l-0,-2.309l2.857,-4.763c0.284,-0.473 0.131,-1.088 -0.343,-1.371c-0.473,-0.284 -1.088,-0.131 -1.371,0.343l-2.143,3.57c0,0 -2.143,-3.57 -2.143,-3.57c-0.283,-0.474 -0.898,-0.627 -1.371,-0.343c-0.474,0.283 -0.627,0.898 -0.343,1.371l2.857,4.763Z" style="fill:url(#_Linear1);"/></g><defs><linearGradient id="_Linear1" x1="0" y1="0" x2="1" y2="0" gradientUnits="userSpaceOnUse" gradientTransform="matrix(40,40,-40,40,4,4)"><stop offset="0" style="stop-color:#f78cff;stop-opacity:1"/><stop offset="1" style="stop-color:#6dc8ff;stop-opacity:1"/></linearGradient></defs></svg>