<svg xmlns="http://www.w3.org/2000/svg" viewBox="0 0 64 64"><defs><style>.cls-1{fill:none;}.cls-2{fill:#009ede;}.cls-3{fill:#0083ca;}.cls-4{fill:#fff;}</style></defs><g id="_45.cloud" data-name="45.cloud"><path class="cls-1" d="M20.55,10.91a15,15,0,0,0-2.4,3.48h.1A15,15,0,0,1,20.55,10.91Z"/><path class="cls-1" d="M21,10.48l.07-.06Z"/><path class="cls-2" d="M15.93,36.32l-.38,0Z"/><path class="cls-2" d="M43.59,14.26l.12.21Z"/><path class="cls-2" d="M14.92,36.18l-.48-.1Z"/><path class="cls-2" d="M14,36l-.54-.16Z"/><path class="cls-2" d="M13.12,35.7a11.81,11.81,0,0,1-2.93-1.57c-2.13-7.34,4.52-14.78,12.17-13.75,3.24-7.3,12.75-10.68,20-7.31l.22-.24.28.38a21.11,21.11,0,0,0-2.7-2.89A5.26,5.26,0,0,1,40,8.47c-7.14-4.89-18.25-2.08-21.76,5.92h-.1l-.25.47C4.77,13.51,1,31.25,13.12,35.7Z"/><path class="cls-3" d="M53.49,18.39c-2-1-3.92-2.33-6.38-2.17-.82-.1-1.65.38-2.39,0-.82-1-1.19-2.4-2.1-3.4l-.22.24c-7.29-3.37-16.79,0-20,7.31-7.65-1-14.3,6.41-12.17,13.75A11.6,11.6,0,0,0,17,36.38H47.11A10.63,10.63,0,0,0,54.69,18,3.71,3.71,0,0,1,53.49,18.39Z"/><path class="cls-4" d="M35.23,9.36c-1.65-.77-9.7-.6-8.93,2.14a1,1,0,0,0,.89.55,10.91,10.91,0,0,1,7.49-.76A1,1,0,0,0,35.23,9.36Z"/><path class="cls-4" d="M23.68,12.38c-.59.5-1.21,1.37-.46,2s1.42,0,1.87-.61C26,12.89,24.58,11.45,23.68,12.38Z"/><path class="cls-4" d="M19.91,18.55a8.41,8.41,0,0,0-9.83,2.23,1,1,0,0,0,.11,1.41,1,1,0,0,0,1.41-.12,6.39,6.39,0,0,1,4.87-2.25c1.28-.31,3.14,1.46,3.94.05A1,1,0,0,0,19.91,18.55Z"/><path class="cls-4" d="M9.47,23.65c-1.41-.22-1.34,1.59-1.38,2.55a1,1,0,0,0,1,1c1.28,0,.91-1.51,1.14-2.36A1,1,0,0,0,9.47,23.65Z"/><path d="M47.41,14.66a11.52,11.52,0,0,0-1.3.09c-5.24-11.9-23-11.89-28.22,0-16.07-1.17-17.41,22.31-1.3,23H47.41C62.65,37.26,62.66,15.15,47.41,14.66Zm0,21.08H16.59A9.55,9.55,0,0,1,7.05,26.2C7,15.9,21.45,13,25.4,22.53a1,1,0,0,0,1.31.54,1,1,0,0,0,.54-1.3,11.63,11.63,0,0,0-7.35-6.61c4.62-9.77,19.58-9.77,24.2,0a11.63,11.63,0,0,0-7.35,6.61,1,1,0,0,0,.54,1.3,1,1,0,0,0,1.31-.54C42.54,13,57,15.9,57,26.2A9.55,9.55,0,0,1,47.41,35.74Z"/><path d="M19.88,42.09a1,1,0,0,0-1.3.54L12.64,56.87a1,1,0,0,0,.92,1.39,1,1,0,0,0,.93-.62l5.93-14.25A1,1,0,0,0,19.88,42.09Z"/><path d="M25.82,40.38a1,1,0,0,0-1.31.54L18.58,55.17a1,1,0,0,0,1.84.77l5.94-14.25A1,1,0,0,0,25.82,40.38Z"/><path d="M30.88,42.09a1,1,0,0,0-1.3.54L23.64,56.87a1,1,0,0,0,.92,1.39,1,1,0,0,0,.93-.62l5.93-14.25A1,1,0,0,0,30.88,42.09Z"/><path d="M36.82,40.38a1,1,0,0,0-1.31.54L29.58,55.17a1,1,0,0,0,.54,1.3,1,1,0,0,0,1.3-.53l5.94-14.25A1,1,0,0,0,36.82,40.38Z"/><path d="M40.88,42.09a1,1,0,0,0-1.3.54L33.64,56.87a1,1,0,0,0,.92,1.39,1,1,0,0,0,.93-.62l5.93-14.25A1,1,0,0,0,40.88,42.09Z"/><path d="M46.82,40.38a1,1,0,0,0-1.31.54L39.58,55.17a1,1,0,0,0,.54,1.3,1,1,0,0,0,1.3-.53l5.94-14.25A1,1,0,0,0,46.82,40.38Z"/></g></svg>