<?xml version="1.0" encoding="UTF-8" standalone="no"?> <svg width="64" height="64" viewBox="0 0 64 64" fill="none" xmlns="http://www.w3.org/2000/svg">
<path d="M45.23 17C43.0513 17.0131 40.9656 17.8844 39.425 19.425C37.8844 20.9656 37.0131 23.0513 37 25.23C37 25.6278 37.158 26.0094 37.4393 26.2907C37.7206 26.572 38.1022 26.73 38.5 26.73C38.8978 26.73 39.2794 26.572 39.5607 26.2907C39.842 26.0094 40 25.6278 40 25.23C40.013 23.847 40.5682 22.5242 41.5462 21.5462C42.5242 20.5682 43.847 20.013 45.23 20C52.23 20.22 52.23 30.32 45.23 30.54H12C11.6022 30.54 11.2206 30.698 10.9393 30.9793C10.658 31.2606 10.5 31.6422 10.5 32.04C10.5 32.4378 10.658 32.8194 10.9393 33.1007C11.2206 33.382 11.6022 33.54 12 33.54H45.23C56.18 33.09 56.19 17.38 45.23 17Z" fill="url(#paint0_linear_122:2511)"/>
<path d="M35 37H12C11.6022 37 11.2206 37.158 10.9393 37.4393C10.658 37.7206 10.5 38.1022 10.5 38.5C10.5 38.8978 10.658 39.2794 10.9393 39.5607C11.2206 39.842 11.6022 40 12 40H35C36.3969 40.0026 37.7358 40.5587 38.7235 41.5465C39.7113 42.5342 40.2674 43.8731 40.27 45.27C40.05 52.27 29.95 52.27 29.73 45.27C29.73 44.8722 29.572 44.4906 29.2907 44.2093C29.0094 43.928 28.6278 43.77 28.23 43.77C27.8322 43.77 27.4506 43.928 27.1693 44.2093C26.888 44.4906 26.73 44.8722 26.73 45.27C26.7432 47.4556 27.62 49.5473 29.1692 51.089C30.7184 52.6307 32.8144 53.4974 35 53.5C45.9 53.09 45.9 37.38 35 37Z" fill="url(#paint1_linear_122:2511)"/>
<path d="M12 27H25.23C36.23 26.58 36.23 10.87 25.23 10.46C23.0375 10.4732 20.9397 11.3555 19.3969 12.9134C17.854 14.4712 16.992 16.5774 17 18.77C17 19.1678 17.158 19.5493 17.4393 19.8306C17.7206 20.1119 18.1022 20.27 18.5 20.27C18.8978 20.27 19.2794 20.1119 19.5607 19.8306C19.842 19.5493 20 19.1678 20 18.77C20.22 11.77 30.32 11.77 30.54 18.77C30.5268 20.1668 29.9606 21.5015 28.9653 22.4818C27.9701 23.4621 26.6269 24.008 25.23 24H12C11.6022 24 11.2206 24.158 10.9393 24.4393C10.658 24.7206 10.5 25.1021 10.5 25.5C10.5 25.8978 10.658 26.2793 10.9393 26.5606C11.2206 26.8419 11.6022 27 12 27Z" fill="url(#paint2_linear_122:2511)"/>
<defs>
<linearGradient id="paint0_linear_122:2511" x1="10.52" y1="25.23" x2="53.45" y2="25.23" gradientUnits="userSpaceOnUse">
<stop stop-color="#6031A5"/>
<stop offset="0.63" stop-color="#412083"/>
<stop offset="1" stop-color="#331974"/>
</linearGradient>
<linearGradient id="paint1_linear_122:2511" x1="353.587" y1="783.295" x2="1420.75" y2="783.295" gradientUnits="userSpaceOnUse">
<stop stop-color="#6031A5"/>
<stop offset="0.63" stop-color="#412083"/>
<stop offset="1" stop-color="#331974"/>
</linearGradient>
<linearGradient id="paint2_linear_122:2511" x1="252.25" y1="320.916" x2="779.181" y2="320.916" gradientUnits="userSpaceOnUse">
<stop stop-color="#6031A5"/>
<stop offset="0.63" stop-color="#412083"/>
<stop offset="1" stop-color="#331974"/>
</linearGradient>
</defs>
</svg>
